# xmcd CD database file
#
# Track frame offsets:
#	151
#	18069
#	34595
#	52049
#	70301
#	96676
#	113276
#	128578
#	146795
#	168567
#	182616
#	200884
#	218793
#	238317
#	253547
#	275630
#
# Disc length: 3896 seconds
#
# Revision: 1
# Processed by: cddbd v1.5.2PL0 Copyright (c) Steve Scherf et al.
# Submitted via: CDex 1.70beta2
#
DISCID=f10f3610
DTITLE=Star Way Dance - Dance
DYEAR=2008
DGENRE=Salsa
TTITLE0=Star War Dance
TTITLE1=You'll Be In My Heart
TTITLE2=Wild Wild West
TTITLE3=Beautiful Stranger
TTITLE4=Right Here Right Now
TTITLE5=Westerhouse
TTITLE6=No Matter What
TTITLE7=Livin' La Vida Loca
TTITLE8=Snow On The Sahara
TTITLE9=Pretty Fly
TTITLE10=Thank Abba For The Music
TTITLE11=Baby One More Time
TTITLE12=Dreams
TTITLE13=Crush
TTITLE14=Happiness
TTITLE15=Every Morning
EXTD=YEAR: 2008
EXTT0=
EXTT1=
EXTT2=
EXTT3=
EXTT4=
EXTT5=
EXTT6=
EXTT7=
EXTT8=
EXTT9=
EXTT10=
EXTT11=
EXTT12=
EXTT13=
EXTT14=
EXTT15=
PLAYORDER=
